<svg width="179" height="18" viewBox="0 0 179 18" fill="none" xmlns="http://www.w3.org/2000/svg">
<path d="M89.4734 0.0324707L81.1782 12.2949C81.1782 12.2949 84.4898 11.9342 86.0635 9.63912L86.6865 8.75387H93.6046L94.5554 10.2293C95.5063 11.7703 99.4735 12.2621 99.4735 12.2621L91.08 0.0324707H89.4734ZM87.8996 6.98335L90.2603 3.5407L92.4571 6.98335H87.8996Z" fill="#0C0C0C"/>
<path d="M119.538 5.67185C120.227 5.08168 120.555 4.42594 120.555 3.73741C120.555 1.37673 118.096 0.261963 113.178 0.261963H108.063V12.3932H111.374V7.344C112.325 7.37679 113.047 7.37679 113.571 7.40958L116.653 10.426C118.26 12.3277 122.719 12.3932 122.719 12.3932L116.981 6.95056C117.997 6.65548 118.85 6.26202 119.538 5.67185ZM115.965 5.14726C115.309 5.40956 114.26 5.54071 112.817 5.54071C112.489 5.54071 111.997 5.50792 111.374 5.47514V2.2292H115.014C116.555 2.2292 116.981 3.08167 116.981 3.67184C116.981 4.42595 116.62 4.91775 115.965 5.14726Z" fill="#0C0C0C"/>
<path d="M143.016 5.67185C143.705 5.08168 144.032 4.42594 144.032 3.73741C144.032 1.37673 141.573 0.261963 136.655 0.261963H131.54V12.3932H134.852V7.344C135.803 7.37679 136.524 7.37679 137.049 7.40958L140.131 10.426C141.737 12.3277 146.196 12.3932 146.196 12.3932L140.459 6.95056C141.475 6.65548 142.327 6.26202 143.016 5.67185ZM139.442 5.14726C138.786 5.40956 137.737 5.54071 136.295 5.54071C135.967 5.54071 135.475 5.50792 134.852 5.47514V2.2292H138.491C140.032 2.2292 140.426 3.08167 140.426 3.67184C140.459 4.42595 140.131 4.91775 139.442 5.14726Z" fill="#0C0C0C"/>
<path d="M158.032 0.229492H154.589V12.2952H158.032V0.229492Z" fill="#0C0C0C"/>
<path d="M177.802 7.63942C177.507 7.1804 177.081 6.81974 176.491 6.45908C175.934 6.13121 174.983 5.77055 173.671 5.3771C171.212 4.62299 169.966 3.90167 169.966 3.21314C169.966 2.78691 170.196 2.45904 170.622 2.19675C171.048 1.93445 171.671 1.8033 172.458 1.8033C173.475 1.8033 174.425 1.96723 175.343 2.26232C176.261 2.52461 177.311 0.786891 177.311 0.786891C176.261 0.262296 174.622 0 172.393 0C170.688 0 169.278 0.295081 168.163 0.918038C167.048 1.541 166.524 2.32789 166.524 3.24593C166.524 3.73774 166.655 4.19677 166.95 4.623C167.212 5.04923 167.638 5.40989 168.13 5.70497C168.655 6.00006 169.638 6.3935 171.114 6.85253C172.589 7.31155 173.573 7.73778 174.065 8.13122C174.556 8.49188 174.786 8.91812 174.786 9.31157C174.786 10.1968 173.77 10.6231 171.77 10.6231C170.852 10.6231 169.933 10.4591 168.983 10.1968C167.638 9.83617 166.491 11.6722 166.491 11.6722C167.933 12.2624 169.573 12.5575 171.376 12.5575C173.442 12.5575 175.114 12.2296 176.36 11.6067C177.606 10.9837 178.229 10.164 178.229 9.18042C178.261 8.59025 178.098 8.09844 177.802 7.63942Z" fill="#0C0C0C"/>
<path d="M50.6215 9.21351L50.5231 9.2463C50.5231 9.2463 47.3428 10.4266 47.7034 14.5578L56.6871 9.80368C54.8511 9.11515 52.6871 8.68892 50.6215 9.21351Z" fill="#E60027"/>
<path d="M50.6213 9.21322C52.6869 8.65583 54.8509 9.11485 56.687 9.83617C59.2771 10.8526 61.1788 12.3936 61.1788 12.3936C64.6215 5.77055 76.1298 0.36067 76.1298 0.36067V0.327881L50.6213 9.21322C50.6541 9.18043 50.523 9.24601 50.4902 9.24601L50.6213 9.21322Z" fill="#0C0C0C"/>
<path d="M0.91494 15.3106L76.6534 0.130096H76.719C76.719 0.130096 76.7517 0.0973147 76.7517 0.0645275C76.7517 0.0317403 76.7517 0.0317383 76.719 0.0317383H76.5878L24.5545 0.130096C24.5545 0.130096 28.8169 0.753057 32.2267 1.83504C34.653 2.58914 36.5546 3.57276 36.3907 4.7531C36.1284 5.96623 34.3907 6.39246 33.4726 6.68754L0.554281 14.8516C0.554281 14.8516 0.259196 14.9171 0.32477 15.1467C0.423132 15.3762 0.816578 15.3106 0.91494 15.3106Z" fill="#0C0C0C"/>
<path d="M64.7858 13.9343C65.1464 13.9343 65.4743 14.0327 65.8022 14.1966C66.13 14.3606 66.3923 14.6229 66.5563 14.9507C66.753 15.2786 66.8186 15.6393 66.8186 15.9671C66.8186 16.3278 66.7202 16.6557 66.5563 16.9835C66.3595 17.3114 66.13 17.5737 65.8022 17.7376C65.4743 17.9344 65.1464 17.9999 64.7858 17.9999C64.4251 17.9999 64.0972 17.9016 63.7693 17.7376C63.4415 17.5409 63.1792 17.3114 63.0152 16.9835C62.8185 16.6557 62.7529 16.3278 62.7529 15.9671C62.7529 15.6065 62.8513 15.2786 63.0152 14.9507C63.212 14.6229 63.4415 14.3606 63.7693 14.1966C64.0972 14.0327 64.4251 13.9343 64.7858 13.9343ZM64.7858 14.3278C64.4907 14.3278 64.2284 14.3933 63.9661 14.5245C63.7038 14.6556 63.5071 14.8852 63.3431 15.1475C63.1792 15.4098 63.1136 15.7048 63.1136 15.9671C63.1136 16.2622 63.1792 16.5245 63.3431 16.7868C63.4743 17.0491 63.7038 17.2458 63.9661 17.4098C64.2284 17.5409 64.4907 17.6393 64.7858 17.6393C65.0808 17.6393 65.3431 17.5737 65.6054 17.4098C65.8677 17.2786 66.0645 17.0491 66.2284 16.7868C66.3595 16.5245 66.4579 16.2622 66.4579 15.9671C66.4579 15.6721 66.3923 15.4098 66.2284 15.1475C66.0645 14.8852 65.8677 14.6884 65.6054 14.5245C65.3431 14.3933 65.0481 14.3278 64.7858 14.3278ZM63.8349 17.0819V14.9179H64.2939C64.7202 14.9179 64.9497 14.9179 64.9825 14.9179C65.1136 14.9179 65.2448 14.9507 65.3103 15.0163C65.3759 15.0491 65.4743 15.1475 65.5071 15.213C65.5726 15.3114 65.5727 15.4097 65.5727 15.5409C65.5727 15.7048 65.5071 15.836 65.4087 15.9343C65.3104 16.0327 65.1464 16.1311 64.9825 16.1311C65.0481 16.1639 65.1136 16.1966 65.1464 16.1966C65.1792 16.2294 65.2448 16.295 65.3103 16.3606C65.3103 16.3934 65.3759 16.4589 65.4743 16.6229L65.7366 17.0491H65.1792L64.9825 16.6885C64.8513 16.4589 64.753 16.295 64.6874 16.2294C64.6218 16.1639 64.4907 16.1311 64.3923 16.1311H64.2612V17.0163H63.8349V17.0819ZM64.2939 15.836H64.4579C64.7202 15.836 64.8841 15.836 64.9497 15.8032C65.0153 15.7704 65.0481 15.7376 65.0808 15.7048C65.1136 15.672 65.1464 15.6065 65.1464 15.5409C65.1464 15.4753 65.1136 15.4097 65.0808 15.377C65.0481 15.3442 64.9825 15.3114 64.9169 15.2786C64.8513 15.2458 64.6874 15.2458 64.4579 15.2458H64.2939V15.836Z" fill="#0C0C0C"/>
</svg>
