<svg width="32" height="32" viewBox="0 0 32 32" fill="none" xmlns="http://www.w3.org/2000/svg">
<g clip-path="url(#clip0_1223_5867)">
<path d="M23.0202 9.68693C23.2155 9.49167 23.2155 9.17508 23.0202 8.97982C22.825 8.78456 22.5084 8.78456 22.3131 8.97982L23.0202 9.68693ZM22.3131 8.97982L8.97979 22.3132L9.6869 23.0203L23.0202 9.68693L22.3131 8.97982Z" fill="#2C3E50"/>
<path d="M22.6667 9.33337H23.1667C23.1667 9.05723 22.9428 8.83337 22.6667 8.83337V9.33337ZM22.1667 21.3334C22.1667 21.6095 22.3905 21.8334 22.6667 21.8334C22.9428 21.8334 23.1667 21.6095 23.1667 21.3334H22.1667ZM10.6667 9.83337H22.6667V8.83337H10.6667V9.83337ZM22.1667 9.33337V21.3334H23.1667V9.33337H22.1667Z" fill="#2C3E50"/>
</g>
<defs>
<clipPath id="clip0_1223_5867">
<rect width="32" height="32" fill="white"/>
</clipPath>
</defs>
</svg>
