<svg width="101" height="32" viewBox="0 0 101 32" fill="none" xmlns="http://www.w3.org/2000/svg">
<mask id="mask0_430_405" style="mask-type:luminance" maskUnits="userSpaceOnUse" x="0" y="0" width="101" height="32">
<path d="M99.4432 21.8738C99.318 21.8738 99.0676 21.999 99.0676 22.2493C98.0688 25.1247 96.6931 26.8753 95.5664 26.8753C94.9405 26.8753 94.6927 26.1242 94.6927 24.9995C94.6927 22.1242 96.4427 15.998 97.3177 13.248C97.4429 12.8724 97.4429 12.622 97.4429 12.3735C97.4429 11.6225 96.9421 11.1237 95.9419 11.1237C94.8179 11.1237 93.4422 11.6244 92.3155 13.7486C91.94 11.8729 90.5655 10.9986 88.8143 10.9986C86.6887 10.9986 84.6897 12.3735 83.0638 14.4997C81.4383 16.6259 79.4373 17.375 78.0622 16.9994C79.0618 14.3745 79.5625 12.4987 79.5625 11.1237C79.5625 8.87238 78.4378 7.49731 76.6872 7.49731C73.937 7.49731 72.4368 10.1223 72.4368 12.8742C72.4368 15.0004 73.4363 17.1246 75.4373 18.2513C73.6867 22.2513 71.0619 25.8778 70.1856 25.8778C68.9357 25.8778 68.5601 19.7516 68.6853 15.2508C68.6853 12.751 68.9357 12.6258 68.9357 11.8747C68.9357 11.374 68.6853 11.1237 67.5606 11.1237C64.9357 11.1237 64.0594 13.375 63.9342 15.9999C63.9342 16.9994 63.6838 18.0009 63.4334 18.8753C62.3087 22.8753 60.0574 25.8778 58.5571 25.8778C57.806 25.8778 57.6828 25.1266 57.6828 24.2523C57.6828 21.377 59.3082 17.7506 59.3082 14.7501C59.3082 12.4987 58.3087 11.1237 56.4329 11.1237C54.3067 11.1237 51.3064 13.7486 48.6814 18.6249C49.5557 14.8733 49.9313 11.2489 47.3063 11.2489C46.6804 11.2489 46.1816 11.374 45.6809 11.6244C45.3053 11.7495 45.055 12.1251 45.1802 12.4987C45.4305 16.4987 41.9293 26.6269 38.6784 26.6269C38.0525 26.6269 37.8041 26.001 37.8041 25.0015C37.8041 22.1261 39.5547 16.1251 40.429 13.2498C40.5542 12.8742 40.5542 12.6239 40.5542 12.2503C40.5542 11.4992 40.0535 11.1256 39.054 11.1256C37.9293 11.1256 36.5542 11.6263 35.4275 13.7505C35.052 11.8747 33.6769 11.0004 31.9264 11.0004C28.9259 11.0004 25.675 14.1261 24.2999 18.1261C22.4241 23.5032 18.4241 28.7531 13.1722 28.7531C8.42124 28.7531 5.92148 24.7531 5.92148 18.5017C5.29555 9.62534 11.9225 2.24742 16.7987 2.24742C19.1733 2.24742 20.2999 3.74767 20.2999 5.99904C20.2999 8.74917 18.7997 10.1242 18.7997 11.1256C18.7997 11.5012 19.05 11.7515 19.5508 11.7515C21.677 11.7515 24.1767 9.25176 24.1767 5.75064C24.1767 2.24939 21.4266 3.24287e-06 16.5503 3.24287e-06C8.42322 -0.00592661 0.170837 8.12127 0.170837 18.6229C0.170837 27.0005 4.29604 32 11.4236 32C16.2999 32 20.5503 28.2484 22.8017 23.7476C23.052 27.3741 24.6775 29.3731 27.3024 29.3731C29.5537 29.3731 31.4275 27.998 32.8026 25.6215C33.3033 28.1212 34.8036 29.2479 36.5542 29.2479C38.6804 29.2479 40.431 27.8728 42.1796 25.3711C42.1796 27.3721 42.5552 29.1227 44.3058 29.1227C45.0569 29.1227 46.0564 28.9975 46.1816 28.2484C47.9323 20.8723 52.4329 14.8714 53.6828 14.8714C54.0583 14.8714 54.1835 15.247 54.1835 15.7457C54.1835 17.7466 52.8084 21.8718 52.8084 24.4968C52.8084 27.3721 54.0583 29.2479 56.5601 29.2479C59.3102 29.2479 62.1855 25.8718 63.9362 20.8703C64.5621 25.4963 65.812 29.2479 67.813 29.2479C70.1874 29.2479 74.565 24.1212 77.1899 18.7461C78.1894 18.8713 79.8148 18.8713 81.1899 17.7466C80.564 19.372 80.1904 21.1227 80.1904 22.8733C80.1904 27.8748 82.565 29.2499 84.691 29.2499C86.9431 29.2499 88.8169 27.8748 90.1913 25.4982C90.6921 27.6244 91.8174 29.1247 93.9429 29.1247C97.319 29.1247 100.32 25.6234 100.32 22.8733C100.193 22.3745 99.8174 21.8738 99.4432 21.8738ZM29.3014 26.6249C27.9264 26.6249 27.4256 25.2499 27.4256 23.2489C27.4256 19.7476 29.8002 13.7467 32.427 13.7467C33.5517 13.7467 33.9273 15.1218 33.9273 16.7471C33.9273 20.2483 31.6779 26.6249 29.3014 26.6249ZM76.0613 15.998C75.1869 14.9985 74.9366 13.7467 74.9366 12.4968C74.9366 10.9966 75.4373 9.87189 76.0613 9.87189C76.6872 9.87189 76.9356 10.4978 76.9356 11.3721C76.9376 12.7472 76.4368 14.8733 76.0613 15.998ZM86.6901 26.6249C85.3156 26.6249 84.8149 24.9995 84.8149 23.2489C84.8149 19.8728 87.1895 13.7467 89.8158 13.7467C90.9411 13.7467 91.3167 15.1218 91.3167 16.7471C91.3167 20.2483 89.0646 26.6249 86.6901 26.6249Z" fill="white"/>
</mask>
<g mask="url(#mask0_430_405)">
<path d="M100.567 -1.75781H-0.205139V33.6241H100.567V-1.75781Z" fill="black"/>
</g>
</svg>
