<svg width="655" height="163" viewBox="0 0 655 163" fill="none" xmlns="http://www.w3.org/2000/svg">
<path d="M34.7287 124.868C29.6056 124.868 24.8766 123.774 20.5417 121.586C16.3053 119.398 12.66 116.376 9.60582 112.522C6.55166 108.562 4.18715 103.874 2.51229 98.4564C0.837431 93.0387 0 87.1 0 80.6405C0 73.9725 0.886691 67.9297 2.66007 62.512C4.43346 56.9901 6.84723 52.3017 9.90139 48.4468C13.0541 44.5919 16.7979 41.6226 21.1328 39.5388C25.4677 37.4551 30.1968 36.4132 35.3199 36.4132C41.3297 36.4132 46.502 37.8197 50.837 40.6328C55.2704 43.4458 58.7187 47.457 61.1817 52.6663L67.9797 47.8217C65.4181 43.9668 63.6447 40.164 62.6595 36.4132C61.6743 32.5583 61.1817 27.922 61.1817 22.5043V7.97028H83.6445V122.055H65.024V121.43C65.5166 119.763 66.0585 118.148 66.6496 116.585C67.3393 114.918 68.0782 113.043 68.8664 110.959L62.0684 107.208C59.6054 113.147 55.9108 117.575 50.9847 120.492C46.0587 123.409 40.64 124.868 34.7287 124.868ZM42.4134 105.02C46.8469 105.02 50.7877 103.874 54.236 101.582C57.6842 99.2899 59.9994 96.1122 61.1817 92.0489V69.232C59.9994 65.3771 57.7827 62.2515 54.5315 59.8552C51.2803 57.4589 47.2902 56.2608 42.5612 56.2608C36.847 56.2608 32.1179 58.2924 28.3741 62.3557C24.6303 66.3148 22.7584 72.4097 22.7584 80.6405C22.7584 88.4545 24.5318 94.4973 28.0786 98.7689C31.6253 102.936 36.4036 105.02 42.4134 105.02Z" fill="#1E1E1E"/>
<path d="M85.6269 80.7968C85.6269 74.233 86.6121 68.2422 88.5825 62.8245C90.553 57.3027 93.3608 52.6143 97.0061 48.7593C100.651 44.8003 105.036 41.7788 110.159 39.6951C115.38 37.5072 121.144 36.4132 127.449 36.4132C133.557 36.4132 139.075 37.403 144.001 39.3825C149.025 41.3621 153.311 44.2793 156.858 48.1342C160.405 51.885 163.114 56.5213 164.986 62.0432C166.956 67.4609 167.941 73.66 167.941 80.6405V88.1419H108.09C108.582 93.5596 110.602 97.8834 114.149 101.113C117.794 104.239 122.572 105.802 128.484 105.802C133.607 105.802 138.139 104.655 142.08 102.363C146.02 100.071 149.075 96.9457 151.242 92.9866L163.951 108.146C162.276 110.855 160.109 113.251 157.449 115.335C154.887 117.418 151.981 119.19 148.73 120.648C145.577 122.003 142.227 123.044 138.681 123.774C135.134 124.503 131.538 124.868 127.893 124.868C121.686 124.868 115.971 123.878 110.75 121.898C105.627 119.815 101.193 116.897 97.4494 113.147C93.7056 109.292 90.7993 104.655 88.7303 99.2378C86.6614 93.8201 85.6269 87.6731 85.6269 80.7968ZM146.07 72.0451C145.577 66.7316 143.705 62.512 140.454 59.3864C137.203 56.2608 132.769 54.698 127.154 54.698C121.932 54.698 117.597 56.2087 114.149 59.2301C110.701 62.1473 108.73 66.419 108.238 72.0451H146.07Z" fill="#1E1E1E"/>
<path d="M183.359 92.0489C185.625 102.051 192.472 107.052 203.901 107.052C208.039 107.052 211.191 106.322 213.359 104.864C215.625 103.405 216.758 101.322 216.758 98.6127C216.758 96.7373 216.216 95.2787 215.132 94.2368C214.147 93.0908 212.719 92.2052 210.847 91.5801C209.073 90.9549 206.955 90.434 204.492 90.0173C202.029 89.6005 199.418 89.1317 196.66 88.6107C193.211 87.8814 189.763 86.9958 186.315 85.954C182.867 84.8079 179.763 83.2451 177.005 81.2656C174.246 79.286 171.98 76.8377 170.207 73.9204C168.532 70.899 167.694 67.2004 167.694 62.8245C167.694 58.5529 168.532 54.8022 170.207 51.5724C171.881 48.3426 174.246 45.5817 177.3 43.2896C180.354 40.9974 184 39.2784 188.236 38.1323C192.571 36.9863 197.3 36.4132 202.423 36.4132C212.669 36.4132 221.044 38.6012 227.546 42.977C234.048 47.2486 237.989 53.031 239.369 60.3241L221.782 66.419C220.305 62.0431 217.743 58.9175 214.098 57.0422C210.551 55.0626 206.364 54.0729 201.536 54.0729C197.398 54.0729 194.394 54.7501 192.522 56.1045C190.748 57.3547 189.862 59.1259 189.862 61.418C189.862 63.1892 190.403 64.5957 191.487 65.6376C192.669 66.6795 194.246 67.565 196.216 68.2943C198.285 68.9195 200.65 69.4925 203.31 70.0134C205.97 70.4302 208.827 70.9511 211.881 71.5762C215.723 72.3055 219.27 73.2432 222.521 74.3893C225.871 75.4311 228.777 76.8897 231.241 78.7651C233.802 80.6405 235.773 83.0368 237.152 85.954C238.63 88.767 239.369 92.3094 239.369 96.581C239.369 105.749 236.167 112.782 229.763 117.679C223.457 122.471 214.344 124.868 202.423 124.868C190.798 124.868 181.98 122.576 175.97 117.991C169.96 113.407 166.266 107.052 164.886 98.9252L183.359 92.0489Z" fill="#1E1E1E"/>
<path d="M253.798 27.9741C249.66 27.9741 246.31 26.7239 243.749 24.2234C241.286 21.6187 240.054 18.1806 240.054 13.9089C240.054 9.74145 241.286 6.40747 243.749 3.907C246.31 1.30233 249.66 0 253.798 0C258.034 0 261.384 1.30233 263.847 3.907C266.409 6.40747 267.69 9.74145 267.69 13.9089C267.69 18.1806 266.409 21.6187 263.847 24.2234C261.384 26.7239 258.034 27.9741 253.798 27.9741ZM242.714 39.2263H265.029V122.055H242.714V39.2263Z" fill="#1E1E1E"/>
<path d="M297.909 163C291.8 163 286.579 162.531 282.244 161.594C277.909 160.656 274.362 159.353 271.603 157.686C268.943 156.124 266.973 154.144 265.692 151.748C264.411 149.456 263.771 146.903 263.771 144.09C263.771 139.923 265.052 136.641 267.613 134.244C270.273 131.848 273.722 130.39 277.958 129.869V125.337C275.594 124.19 273.82 122.576 272.638 120.492C271.554 118.304 271.012 116.012 271.012 113.616C271.012 109.761 272.145 106.583 274.411 104.082C276.677 101.478 279.731 99.7587 283.574 98.9252V94.2368C277.761 92.4656 273.328 89.3921 270.273 85.0163C267.219 80.5363 265.692 75.379 265.692 69.5446C265.692 64.8562 266.48 60.6366 268.057 56.8859C269.633 53.1352 271.899 49.9575 274.855 47.3528C277.81 44.7482 281.357 42.7686 285.495 41.4142C289.633 39.9556 294.214 39.2263 299.239 39.2263H337.219L340.174 56.1045H336.923C335.445 56.1045 333.524 55.7919 331.16 55.1668C328.795 54.5417 326.431 53.3957 324.066 51.7287L320.371 58.1362C324.509 59.9073 327.514 62.4078 329.386 65.6376C331.357 68.7632 332.342 72.4097 332.342 76.5772C332.342 80.3279 331.603 83.714 330.125 86.7354C328.647 89.7568 326.578 92.3615 323.918 94.5494C321.258 96.6331 318.007 98.248 314.165 99.3941C310.421 100.54 306.234 101.113 301.603 101.113H295.987C293.623 101.113 291.948 101.582 290.963 102.52C290.076 103.353 289.633 104.499 289.633 105.958C289.633 107.729 290.322 108.927 291.702 109.552C293.18 110.177 295.051 110.594 297.317 110.802L314.904 111.74C319.238 112.053 322.933 112.834 325.987 114.084C329.041 115.335 331.504 117.002 333.376 119.085C335.248 121.065 336.578 123.409 337.366 126.118C338.253 128.931 338.696 132.004 338.696 135.338C338.696 140.027 337.76 144.09 335.889 147.528C334.017 151.071 331.307 153.936 327.761 156.124C324.214 158.416 319.928 160.135 314.904 161.281C309.879 162.427 304.214 163 297.909 163ZM298.943 84.3912C303.377 84.3912 306.677 83.0889 308.844 80.4842C311.012 77.8795 312.096 74.3893 312.096 70.0134C312.096 65.325 310.864 61.8348 308.401 59.5427C306.037 57.1464 302.884 55.9482 298.943 55.9482C294.51 55.9482 291.209 57.2506 289.042 59.8552C286.874 62.3557 285.79 65.7418 285.79 70.0134C285.79 74.806 286.973 78.4005 289.337 80.7968C291.702 83.193 294.904 84.3912 298.943 84.3912ZM298.5 147.841C305.298 147.841 309.928 147.059 312.391 145.497C314.953 143.934 316.234 141.85 316.234 139.245C316.234 136.537 315.445 134.765 313.869 133.932C312.293 133.203 310.519 132.786 308.549 132.682L285.938 131.275C284.756 131.588 283.82 132.473 283.13 133.932C282.441 135.495 282.096 137.162 282.096 138.933C282.096 142.475 283.574 144.819 286.529 145.965C289.584 147.216 293.574 147.841 298.5 147.841Z" fill="#1E1E1E"/>
<path d="M338.163 39.2263H358.114V39.8514C357.917 41.5184 357.522 43.3416 356.931 45.3212C356.439 47.1965 355.749 49.4887 354.862 52.1975L361.66 55.1668C364.517 48.9156 368.311 44.2272 373.04 41.1016C377.769 37.976 383.138 36.4132 389.148 36.4132C397.818 36.4132 404.813 39.4867 410.133 45.6338C415.453 51.6766 418.113 60.9492 418.113 73.4516V122.055H395.65V78.7651C395.65 71.993 394.468 66.7836 392.103 63.1371C389.739 59.3864 385.847 57.511 380.429 57.511C376.192 57.511 372.35 58.605 368.902 60.7929C365.453 62.9808 362.695 65.9501 360.626 69.7009V122.055H338.163V39.2263Z" fill="#1E1E1E"/>
<path d="M439.18 123.617C434.944 123.617 431.495 122.471 428.835 120.179C426.274 117.887 424.993 114.397 424.993 109.709C424.993 104.916 426.274 101.374 428.835 99.0815C431.495 96.7894 434.944 95.6433 439.18 95.6433C443.416 95.6433 446.865 96.7894 449.525 99.0815C452.185 101.374 453.515 104.916 453.515 109.709C453.515 114.397 452.185 117.887 449.525 120.179C446.865 122.471 443.416 123.617 439.18 123.617Z" fill="#1E1E1E"/>
<path d="M473.779 27.9741C469.642 27.9741 466.292 26.7239 463.73 24.2234C461.267 21.6187 460.036 18.1806 460.036 13.9089C460.036 9.74145 461.267 6.40747 463.73 3.907C466.292 1.30233 469.642 0 473.779 0C478.016 0 481.366 1.30233 483.829 3.907C486.39 6.40747 487.671 9.74145 487.671 13.9089C487.671 18.1806 486.39 21.6187 483.829 24.2234C481.366 26.7239 478.016 27.9741 473.779 27.9741ZM462.696 39.2263H485.011V122.055H462.696V39.2263Z" fill="#1E1E1E"/>
<path d="M492.433 39.2263H512.384V39.8514C512.187 41.5184 511.793 43.3416 511.202 45.3212C510.709 47.1965 510.019 49.4887 509.133 52.1975L515.931 55.1668C518.788 48.9156 522.581 44.2272 527.31 41.1016C532.039 37.976 537.408 36.4132 543.418 36.4132C552.088 36.4132 559.083 39.4867 564.403 45.6338C569.723 51.6766 572.383 60.9492 572.383 73.4516V122.055H549.921V78.7651C549.921 71.993 548.738 66.7836 546.374 63.1371C544.009 59.3864 540.118 57.511 534.699 57.511C530.463 57.511 526.62 58.605 523.172 60.7929C519.724 62.9808 516.965 65.9501 514.896 69.7009V122.055H492.433V39.2263Z" fill="#1E1E1E"/>
<path d="M573.648 81.2656C573.648 74.4935 574.633 68.3464 576.603 62.8245C578.672 57.3027 581.529 52.6143 585.175 48.7593C588.918 44.8003 593.401 41.7788 598.623 39.6951C603.943 37.5072 609.805 36.4132 616.209 36.4132C626.455 36.4132 634.829 38.9658 641.332 44.071C647.834 49.1761 652.169 56.0524 654.337 64.6999L633.352 71.4199C632.268 66.2106 630.051 62.3557 626.701 59.8552C623.45 57.3547 619.509 56.1045 614.879 56.1045C608.869 56.1045 604.239 58.3445 600.987 62.8245C597.835 67.3046 596.258 73.2432 596.258 80.6405C596.258 88.5586 597.982 94.6536 601.431 98.9252C604.977 103.093 609.559 105.176 615.174 105.176C620.199 105.176 624.238 103.822 627.292 101.113C630.347 98.3001 632.416 94.5494 633.499 89.861L654.484 96.581C653.499 100.853 651.775 104.76 649.312 108.302C646.849 111.74 643.893 114.709 640.445 117.21C636.997 119.606 633.056 121.482 628.623 122.836C624.288 124.19 619.608 124.868 614.583 124.868C608.376 124.868 602.761 123.826 597.736 121.742C592.712 119.658 588.377 116.741 584.731 112.99C581.185 109.136 578.426 104.551 576.456 99.2378C574.584 93.8201 573.648 87.8293 573.648 81.2656Z" fill="#1E1E1E"/>
</svg>
