<svg width="989" height="247" viewBox="0 0 989 247" fill="none" xmlns="http://www.w3.org/2000/svg">
<path d="M52.4791 188.985C44.7375 188.985 37.5914 187.334 31.0408 184.032C24.6391 180.73 19.1307 176.17 14.5155 170.352C9.9003 164.377 6.32726 157.302 3.79636 149.125C1.26545 140.949 0 131.986 0 122.237C0 112.174 1.33989 103.054 4.01967 94.8779C6.69945 86.5443 10.3469 79.4685 14.9621 73.6507C19.7262 67.8328 25.3835 63.3515 31.9341 60.2068C38.4846 57.062 45.6307 55.4896 53.3723 55.4896C62.4538 55.4896 70.2698 57.6123 76.8204 61.8578C83.5199 66.1032 88.7306 72.1569 92.4525 80.0188L102.725 72.7072C98.8542 66.8894 96.1744 61.1502 94.6856 55.4896C93.1969 49.6718 92.4525 42.6746 92.4525 34.4982V12.5634H126.396V184.74H98.2587V183.796C99.0031 181.281 99.8219 178.843 100.715 176.485C101.757 173.969 102.874 171.139 104.065 167.994L93.7924 162.333C90.0704 171.296 84.4876 177.979 77.0437 182.381C69.5999 186.784 61.4117 188.985 52.4791 188.985ZM64.0914 159.031C70.7909 159.031 76.746 157.302 81.9567 153.842C87.1674 150.383 90.666 145.587 92.4525 139.455V105.02C90.666 99.202 87.3162 94.4848 82.4033 90.8683C77.4904 87.2518 71.4609 85.4436 64.3148 85.4436C55.6799 85.4436 48.5338 88.5097 42.8765 94.642C37.2192 100.617 34.3905 109.816 34.3905 122.237C34.3905 134.03 37.0703 143.15 42.4299 149.597C47.7894 155.887 55.01 159.031 64.0914 159.031Z" fill="white"/>
<path d="M129.392 122.473C129.392 112.567 130.881 103.526 133.858 95.3496C136.836 87.016 141.079 79.9402 146.587 74.1224C152.096 68.1473 158.721 63.5874 166.462 60.4426C174.353 57.1406 183.062 55.4896 192.59 55.4896C201.82 55.4896 210.158 56.9834 217.601 59.9709C225.194 62.9584 231.67 67.3611 237.03 73.179C242.389 78.8396 246.484 85.8367 249.312 94.1703C252.29 102.347 253.778 111.702 253.778 122.237V133.559H163.336C164.08 141.735 167.132 148.26 172.492 153.135C178 157.852 185.221 160.211 194.153 160.211C201.895 160.211 208.743 158.481 214.698 155.022C220.653 151.562 225.269 146.845 228.544 140.87L247.749 163.748C245.218 167.837 241.943 171.453 237.923 174.598C234.052 177.743 229.66 180.416 224.748 182.617C219.983 184.661 214.922 186.234 209.562 187.334C204.202 188.435 198.769 188.985 193.26 188.985C183.881 188.985 175.246 187.492 167.356 184.504C159.614 181.359 152.914 176.957 147.257 171.296C141.6 165.478 137.208 158.481 134.082 150.305C130.955 142.128 129.392 132.851 129.392 122.473ZM220.728 109.265C219.983 101.246 217.155 94.8779 212.242 90.1607C207.329 85.4436 200.629 83.085 192.143 83.085C184.253 83.085 177.702 85.365 172.492 89.9249C167.281 94.3276 164.304 100.774 163.559 109.265H220.728Z" fill="white"/>
<path d="M277.077 139.455C280.501 154.55 290.848 162.097 308.117 162.097C314.37 162.097 319.134 160.997 322.41 158.795C325.834 156.594 327.546 153.449 327.546 149.361C327.546 146.531 326.727 144.329 325.089 142.757C323.601 141.027 321.442 139.691 318.613 138.748C315.933 137.804 312.733 137.018 309.011 136.389C305.289 135.76 301.343 135.052 297.175 134.266C291.964 133.166 286.754 131.829 281.543 130.257C276.332 128.527 271.643 126.168 267.474 123.181C263.305 120.193 259.881 116.498 257.201 112.096C254.671 107.536 253.405 101.954 253.405 95.3496C253.405 88.9028 254.671 83.2422 257.201 78.3678C259.732 73.4934 263.305 69.3266 267.921 65.8674C272.536 62.4081 278.044 59.8137 284.446 58.084C290.996 56.3544 298.143 55.4896 305.884 55.4896C321.367 55.4896 334.022 58.7916 343.848 65.3956C353.674 71.8424 359.629 80.5692 361.713 91.5759L335.138 100.774C332.905 94.1703 329.034 89.4532 323.526 86.6229C318.167 83.6353 311.839 82.1416 304.544 82.1416C298.291 82.1416 293.751 83.1636 290.922 85.2077C288.242 87.0946 286.902 89.7676 286.902 93.2269C286.902 95.9 287.721 98.0227 289.359 99.5951C291.145 101.167 293.527 102.504 296.505 103.605C299.631 104.548 303.204 105.413 307.224 106.199C311.244 106.828 315.561 107.614 320.176 108.558C325.983 109.658 331.342 111.073 336.255 112.803C341.317 114.376 345.709 116.577 349.431 119.407C353.301 122.237 356.279 125.854 358.363 130.257C360.596 134.502 361.713 139.848 361.713 146.295C361.713 160.132 356.874 170.746 347.197 178.136C337.669 185.369 323.898 188.985 305.884 188.985C288.317 188.985 274.992 185.526 265.911 178.608C256.829 171.689 251.246 162.097 249.162 149.833L277.077 139.455Z" fill="white"/>
<path d="M383.518 42.7533C377.265 42.7533 372.203 40.8664 368.332 37.0927C364.61 33.1617 362.749 27.9728 362.749 21.526C362.749 15.2365 364.61 10.2048 368.332 6.43111C372.203 2.50015 377.265 0.534668 383.518 0.534668C389.919 0.534668 394.981 2.50015 398.703 6.43111C402.574 10.2048 404.509 15.2365 404.509 21.526C404.509 27.9728 402.574 33.1617 398.703 37.0927C394.981 40.8664 389.919 42.7533 383.518 42.7533ZM366.769 59.735H400.49V184.74H366.769V59.735Z" fill="white"/>
<path d="M450.174 246.535C440.943 246.535 433.053 245.827 426.502 244.412C419.952 242.997 414.592 241.031 410.424 238.516C406.404 236.157 403.426 233.169 401.491 229.553C399.556 226.094 398.588 222.241 398.588 217.996C398.588 211.706 400.523 206.753 404.394 203.137C408.414 199.52 413.624 197.319 420.026 196.533V189.693C416.453 187.963 413.773 185.526 411.987 182.381C410.349 179.079 409.53 175.62 409.53 172.004C409.53 166.186 411.242 161.39 414.667 157.616C418.091 153.685 422.706 151.091 428.512 149.833V142.757C419.728 140.084 413.029 135.445 408.414 128.841C403.799 122.08 401.491 114.297 401.491 105.492C401.491 98.4158 402.682 92.0476 405.064 86.387C407.446 80.7264 410.87 75.9306 415.336 71.9997C419.803 68.0687 425.162 65.0812 431.415 63.0371C437.668 60.8357 444.591 59.735 452.184 59.735H509.576L514.042 85.2077H509.129C506.896 85.2077 503.993 84.736 500.42 83.7926C496.847 82.8491 493.273 81.1195 489.7 78.6037L484.118 88.2739C490.37 90.9469 494.911 94.7207 497.74 99.5951C500.717 104.312 502.206 109.816 502.206 116.105C502.206 121.766 501.09 126.876 498.856 131.436C496.623 135.996 493.497 139.927 489.477 143.229C485.457 146.374 480.545 148.811 474.738 150.54C469.081 152.27 462.754 153.135 455.757 153.135H447.271C443.698 153.135 441.167 153.842 439.678 155.258C438.338 156.516 437.668 158.245 437.668 160.446C437.668 163.12 438.71 164.928 440.794 165.871C443.028 166.815 445.856 167.444 449.28 167.758L475.855 169.173C482.405 169.645 487.988 170.824 492.604 172.711C497.219 174.598 500.941 177.114 503.769 180.259C506.598 183.246 508.608 186.784 509.799 190.872C511.139 195.118 511.809 199.756 511.809 204.788C511.809 211.864 510.394 217.996 507.566 223.185C504.737 228.531 500.643 232.855 495.283 236.157C489.924 239.616 483.448 242.211 475.855 243.94C468.262 245.67 459.702 246.535 450.174 246.535ZM451.737 127.898C458.436 127.898 463.424 125.933 466.699 122.002C469.974 118.071 471.612 112.803 471.612 106.199C471.612 99.1234 469.751 93.8559 466.029 90.3966C462.456 86.7801 457.692 84.9719 451.737 84.9719C445.037 84.9719 440.05 86.9373 436.775 90.8683C433.499 94.642 431.862 99.7523 431.862 106.199C431.862 113.432 433.648 118.857 437.221 122.473C440.794 126.09 445.633 127.898 451.737 127.898ZM451.067 223.656C461.339 223.656 468.337 222.477 472.059 220.119C475.929 217.76 477.865 214.615 477.865 210.684C477.865 206.596 476.674 203.923 474.292 202.665C471.91 201.564 469.23 200.935 466.252 200.778L432.085 198.655C430.299 199.127 428.884 200.464 427.842 202.665C426.8 205.024 426.279 207.539 426.279 210.213C426.279 215.559 428.512 219.097 432.978 220.826C437.594 222.713 443.623 223.656 451.067 223.656Z" fill="white"/>
<path d="M511.003 59.735H541.15V60.6785C540.852 63.1943 540.257 65.946 539.364 68.9335C538.619 71.7638 537.577 75.2231 536.237 79.3113L546.51 83.7926C550.827 74.3582 556.559 67.2825 563.705 62.5653C570.851 57.8482 578.965 55.4896 588.046 55.4896C601.148 55.4896 611.718 60.1281 619.757 69.4052C627.796 78.5251 631.816 92.5193 631.816 111.388V184.74H597.872V119.407C597.872 109.187 596.086 101.325 592.513 95.8213C588.94 90.1607 583.059 87.3305 574.871 87.3305C568.469 87.3305 562.663 88.9815 557.452 92.2835C552.241 95.5855 548.073 100.067 544.947 105.727V184.74H511.003V59.735Z" fill="white"/>
<path d="M663.651 187.098C657.249 187.098 652.038 185.369 648.019 181.91C644.148 178.45 642.212 173.183 642.212 166.107C642.212 158.874 644.148 153.528 648.019 150.069C652.038 146.609 657.249 144.88 663.651 144.88C670.052 144.88 675.263 146.609 679.283 150.069C683.302 153.528 685.312 158.874 685.312 166.107C685.312 173.183 683.302 178.45 679.283 181.91C675.263 185.369 670.052 187.098 663.651 187.098Z" fill="white"/>
<path d="M715.934 42.7533C709.682 42.7533 704.62 40.8664 700.749 37.0927C697.027 33.1617 695.166 27.9728 695.166 21.526C695.166 15.2365 697.027 10.2048 700.749 6.43111C704.62 2.50015 709.682 0.534668 715.934 0.534668C722.336 0.534668 727.398 2.50015 731.12 6.43111C734.991 10.2048 736.926 15.2365 736.926 21.526C736.926 27.9728 734.991 33.1617 731.12 37.0927C727.398 40.8664 722.336 42.7533 715.934 42.7533ZM699.186 59.735H732.906V184.74H699.186V59.735Z" fill="white"/>
<path d="M744.123 59.735H774.27V60.6785C773.972 63.1943 773.377 65.946 772.484 68.9335C771.739 71.7638 770.697 75.2231 769.357 79.3113L779.63 83.7926C783.947 74.3582 789.679 67.2825 796.825 62.5653C803.971 57.8482 812.085 55.4896 821.166 55.4896C834.268 55.4896 844.838 60.1281 852.877 69.4052C860.916 78.5251 864.936 92.5193 864.936 111.388V184.74H830.992V119.407C830.992 109.187 829.206 101.325 825.633 95.8213C822.06 90.1607 816.179 87.3305 807.991 87.3305C801.589 87.3305 795.783 88.9815 790.572 92.2835C785.362 95.5855 781.193 100.067 778.067 105.727V184.74H744.123V59.735Z" fill="white"/>
<path d="M866.847 123.181C866.847 112.96 868.335 103.683 871.313 95.3496C874.439 87.016 878.757 79.9402 884.265 74.1224C889.923 68.1473 896.696 63.5874 904.587 60.4426C912.626 57.1406 921.484 55.4896 931.161 55.4896C946.645 55.4896 959.299 59.342 969.125 67.0467C978.951 74.7514 985.501 85.1291 988.777 98.1799L957.066 108.322C955.428 100.46 952.079 94.642 947.017 90.8683C942.104 87.0946 936.149 85.2077 929.152 85.2077C920.07 85.2077 913.073 88.5884 908.16 95.3496C903.396 102.111 901.014 111.073 901.014 122.237C901.014 134.188 903.619 143.386 908.83 149.833C914.189 156.122 921.112 159.267 929.598 159.267C937.191 159.267 943.295 157.223 947.91 153.135C952.525 148.889 955.652 143.229 957.289 136.153L989 146.295C987.511 152.742 984.906 158.638 981.184 163.984C977.462 169.173 972.996 173.655 967.785 177.428C962.574 181.045 956.619 183.875 949.92 185.919C943.369 187.963 936.298 188.985 928.705 188.985C919.326 188.985 910.84 187.413 903.247 184.268C895.654 181.123 889.104 176.721 883.595 171.06C878.236 165.242 874.067 158.324 871.09 150.305C868.261 142.128 866.847 133.087 866.847 123.181Z" fill="white"/>
</svg>
