<svg width="24" height="25" viewBox="0 0 24 25" fill="none" xmlns="http://www.w3.org/2000/svg">
<g clip-path="url(#clip0_1129_2571)">
<path d="M2.1001 13.2453C2.1001 14.5454 2.35617 15.8328 2.85369 17.0339C3.35121 18.235 4.08044 19.3264 4.99974 20.2457C5.91904 21.165 7.01041 21.8942 8.21153 22.3917C9.41266 22.8893 10.7 23.1453 12.0001 23.1453C13.3002 23.1453 14.5875 22.8893 15.7887 22.3917C16.9898 21.8942 18.0812 21.165 19.0005 20.2457C19.9198 19.3264 20.649 18.235 21.1465 17.0339C21.644 15.8328 21.9001 14.5454 21.9001 13.2453C21.9001 10.6197 20.8571 8.10159 19.0005 6.24498C17.1438 4.38837 14.6257 3.34534 12.0001 3.34534C9.37446 3.34534 6.85635 4.38837 4.99974 6.24498C3.14313 8.10159 2.1001 10.6197 2.1001 13.2453Z" stroke="black" stroke-linecap="round" stroke-linejoin="round"/>
<path d="M12 9.94531H12.0073" stroke="black" stroke-linecap="round" stroke-linejoin="round"/>
<path d="M10.9001 13.2454H12.0001V17.6454H13.1001" stroke="black" stroke-linecap="round" stroke-linejoin="round"/>
</g>
<defs>
<clipPath id="clip0_1129_2571">
<rect width="24" height="24" fill="white" transform="translate(0 0.96582)"/>
</clipPath>
</defs>
</svg>
