<svg width="112" height="32" viewBox="0 0 112 32" fill="none" xmlns="http://www.w3.org/2000/svg">
<g clip-path="url(#clip0_430_390)">
<path d="M67.884 17.9867C67.884 17.9867 67.6605 17.1664 67.6605 16.5583V7.04549H71.4703V25.3684L59.2729 15.2681C58.6203 14.7136 58.2341 14.0944 58.2341 14.0944C58.2341 14.0944 58.4274 14.7771 58.4274 15.3679L58.4241 24.9549H54.6121V6.70386L66.6975 16.6012C67.3456 17.1502 67.884 17.9867 67.884 17.9867Z" fill="#0C0C0C"/>
<path d="M102.38 7.04736C108.418 7.04736 109.964 9.42822 109.964 12.8501C109.964 15.3302 108.137 17.7601 104.454 18.0477L104.05 18.0672C104.05 18.0672 104.407 18.1302 104.779 18.4885L111.463 24.9545H106.298L96.9664 15.4796H101.613C105.775 15.4796 105.896 13.2865 105.924 12.7337C106.002 11.3103 105.547 10.1722 102.373 10.1722H97.06V24.9545H93.1008V7.04736H102.38Z" fill="#0C0C0C"/>
<path d="M73.184 16.2565C73.184 8.75443 79.4632 6.7832 84.7416 6.7832C86.8549 6.7832 88.7264 6.97269 90.696 7.39012L90.7015 11.1944C89.5691 10.846 87.2947 10.0814 84.7421 10.0814C79.738 10.0814 77.3081 12.0253 77.3081 16.2559C77.3081 19.7213 79.9275 21.9288 84.7421 21.9288C87.2947 21.9288 89.8505 21.3214 91.0883 20.8649L91.0811 24.5555C89.1137 24.9707 86.8555 25.227 84.7421 25.227C79.1043 25.2276 73.184 22.4873 73.184 16.2565Z" fill="#0C0C0C"/>
<path d="M30.3107 7.50757L34.0264 11.007C33.9249 11.0521 33.8079 11.1078 33.6702 11.1769C33.4551 11.289 33.1987 11.4389 32.8917 11.6518C32.2792 12.0725 31.4811 12.7447 30.4601 13.8465L23.1982 21.5313C21.9538 22.8466 20.6892 23.8888 19.5133 24.44L15.7954 20.9395C15.8968 20.8921 16.0139 20.8397 16.1493 20.7672C16.3644 20.6575 16.6208 20.5053 16.9279 20.2958C17.5387 19.8711 18.339 19.2029 19.3611 18.0994L26.6213 10.4273C27.8663 9.11375 29.1331 8.05875 30.3107 7.50757Z" fill="#0C0C0C"/>
<path d="M15.9275 26.0841C17.5699 26.0841 19.0797 25.7586 20.104 25.2275C20.5722 24.9834 21.2404 24.5632 21.815 24.1151C22.3873 23.6687 23.1988 22.9731 23.8849 22.2436L31.1539 14.5805C32.9875 12.6494 34.0893 12.0531 34.7581 11.8184L38.4865 15.3502C37.7085 16.1822 28.4287 26.0657 28.4287 26.0657C27.7961 26.749 27.1296 27.4083 26.6765 27.8235C26.2412 28.2247 25.4966 28.8227 25.1121 29.1042C22.9296 30.7031 20.0143 32 16.0886 32C7.19322 32 -6.10352e-05 24.7599 -6.10352e-05 16.423C-6.10352e-05 6.08087 8.08047 0.0796852 15.4398 0.0796852C17.6959 0.0128073 19.506 0.39234 20.9372 0.87832C22.2597 1.32807 23.2584 1.87202 23.9829 2.24207C23.1263 2.79103 22.2976 3.53951 20.9316 4.99856L19.4391 6.60085C19.0958 6.46876 17.5732 5.93764 15.6187 5.99727C10.8966 6.1366 5.73194 9.96425 5.91808 16.2435C6.09141 22.1149 10.9311 26.0841 15.9275 26.0841Z" fill="#0C0C0C"/>
<path d="M29.6716 6.77251C29.2017 7.01829 28.5352 7.43739 27.9572 7.88547C27.3866 8.33188 26.5757 9.02741 25.8874 9.75527L18.62 17.42C16.7864 19.3511 15.684 19.9452 15.0158 20.1804L11.2874 16.6521C12.0676 15.8178 21.3458 5.93598 21.3458 5.93598C21.98 5.25271 22.6449 4.5934 23.098 4.17653C23.5333 3.77526 24.2778 3.17949 24.6657 2.89582C26.8443 1.29688 29.7635 0 33.6892 0C42.584 0 49.774 7.24066 49.774 15.5753C49.774 25.9208 41.6951 31.9186 34.3341 31.9186C32.0797 31.9872 30.2679 31.6076 28.8389 31.1178C27.5131 30.6697 26.5105 30.1224 25.7876 29.754C26.6927 29.1432 27.4674 28.4733 28.8439 27.0025L30.3342 25.4003C30.6775 25.5301 32.2007 26.0618 34.1568 26.0038C38.8773 25.8628 44.0436 22.0313 43.8575 15.7537C43.6825 9.88512 38.8394 5.91424 33.8459 5.91424C32.2007 5.91424 30.6976 6.24139 29.6716 6.77251Z" fill="#0C0C0C"/>
</g>
<defs>
<clipPath id="clip0_430_390">
<rect width="111.463" height="32" fill="white"/>
</clipPath>
</defs>
</svg>
