<svg width="97" height="32" viewBox="0 0 97 32" fill="none" xmlns="http://www.w3.org/2000/svg">
<g clip-path="url(#clip0_430_424)">
<path d="M20.3862 26.5573L22.8639 28.5471L25.4918 26.3116L24.4398 25.3287V9.61914C24.4398 9.61914 24.1962 9.66348 24.192 9.69167C24.054 10.465 22.283 12.3099 21.1254 12.6201V25.9612C21.1254 25.9612 20.6542 26.3116 20.3862 26.5573Z" fill="#0C0C0C"/>
<path d="M26.0711 18.0098H26.201L27.7161 19.2948L27.8014 27.4113C27.8014 27.4113 28.2076 31.9469 23.6056 30.9601L23.6381 31.3629C24.3082 31.6924 25.0517 31.8476 25.7989 31.8141C28.3985 31.657 30.6244 30.4203 30.8071 28.0961C31.1199 24.068 30.9534 17.8608 30.9534 17.8608L28.1548 15.8467L24.426 18.8074V19.339C24.426 19.339 26.1076 17.9735 26.0711 18.0098Z" fill="#0C0C0C"/>
<path d="M18.0308 19.6013C18.0172 19.6288 18.005 19.6571 17.9943 19.6859C17.4655 21.1451 16.5725 22.4478 15.3988 23.4722C13.8939 24.7646 11.9492 25.4402 9.9601 25.3614C6.22728 25.1802 3.75771 22.6868 3.75771 19.0293C3.80099 17.9095 4.07568 16.8104 4.56476 15.8002C5.05384 14.7899 5.74688 13.8901 6.60096 13.1563C6.33051 13.1099 6.05303 13.1237 5.7886 13.1966C2.86411 14.5017 0.853546 17.2247 0.853546 20.4028C0.853546 24.8338 4.80565 28.4309 9.67979 28.4309C13.2542 28.4309 16.3371 26.4933 17.7222 23.7099C18.2867 22.2558 18.0593 19.8832 18.0308 19.6013Z" fill="#0C0C0C"/>
<path d="M15.5488 13.6636H15.2083V23.9312H15.5488V13.6636Z" fill="#0C0C0C"/>
<path d="M9.49167 12.2739L9.39826 23.7419L7.45673 24.9503L7.77761 25.3007L12.9767 22.0018V15.6374C12.9767 15.6374 12.9401 13.6233 13.1595 13.583" fill="#0C0C0C"/>
<path d="M8.1325 12.5915C9.31048 12.9219 9.63536 13.2441 10.6346 13.3972C12.2299 13.6065 13.8388 13.6981 15.4478 13.6711C18.9694 13.6711 20.4154 10.3318 20.4154 10.3318C19.2496 10.8152 15.2082 11.1656 12.5152 10.5936C10.594 10.1908 9.76945 10.0619 8.45341 9.78803C0.573531 8.2211 0.415131 14.4203 0.415131 14.4203C1.22749 14.0859 2.75066 11.077 8.1325 12.5915Z" fill="#0C0C0C"/>
<path d="M14.849 18.4811L15.3526 17.9255L15.8847 18.4972L15.4135 19.1011L14.849 18.4811Z" fill="#0C0C0C"/>
<path d="M43.0167 24.0323L42.7485 23.7623L39.6413 26.2436L36.9727 24.3303L36.9483 23.2306L42.2084 19.2025L40.0434 15.4927C38.9236 16.155 37.7623 16.7456 36.5665 17.261C35.9694 17.4785 33.6826 18.3808 33.6826 18.3808L33.7232 25.3051L32.0254 26.6384L32.2407 26.9566L33.772 25.7884L37.4886 28.4631L43.0167 24.0323ZM36.9239 17.5631L37.781 17.1603L39.7916 20.5842L36.9117 22.8198L36.9239 17.5631Z" fill="#0C0C0C"/>
<path d="M68.8852 19.0688L68.4059 19.5562L68.1176 19.2944L68.8974 18.5129L69.8316 17.5663L70.7009 16.6802C72.1428 17.7275 73.4832 18.6539 73.4832 18.6539V24.9216L75.4166 26.3315C75.4166 26.3315 76.7489 25.0062 76.7938 24.9297C76.7938 23.9589 76.7938 20.0154 76.7938 20.0154L75.445 18.9802L74.8845 19.4676L74.6123 19.2179L77.1588 16.6802L79.7668 18.6942L80.6117 17.8604L80.8593 18.1545L80.0228 19.0044V25.9126L80.7009 26.3516L81.4849 25.5903L81.7447 25.8521L78.8692 28.7322L76.806 27.2539V25.4936L73.674 28.6758L70.3556 26.3516L69.4945 27.1572L69.2183 26.8914L70.2703 25.8441V20.0235L68.9096 19.0527" fill="#0C0C0C"/>
<path d="M68.8852 19.0688L68.4059 19.5562L68.1176 19.2944L68.8974 18.5129L69.8316 17.5663L70.7009 16.6802C72.1428 17.7275 73.4832 18.6539 73.4832 18.6539V24.9216L75.4166 26.3315C75.4166 26.3315 76.7489 25.0062 76.7938 24.9297C76.7938 23.9589 76.7938 20.0154 76.7938 20.0154L75.445 18.9802L74.8845 19.4676L74.6123 19.2179L77.1588 16.6802L79.7668 18.6942L80.6117 17.8604L80.8593 18.1545L80.0228 19.0044V25.9126L80.7009 26.3516L81.4849 25.5903L81.7447 25.8521L78.8692 28.7322L76.806 27.2539V25.4936L73.674 28.6758L70.3556 26.3516L69.4945 27.1572L69.2183 26.8914L70.2703 25.8441V20.0235L68.9096 19.0527" fill="#0C0C0C"/>
<path d="M87.5946 18.5205V19.9988L90.6048 16.5709L93.6349 18.7098L94.3534 17.9646L94.63 18.2184L94.5165 18.2869L93.7812 19.1328V25.5415L94.7641 26.3027L95.4178 25.5657L95.6898 25.8355L93.1313 28.7196L90.7671 26.8546V20.3735L88.9066 19.0845L87.5824 20.5949V26.3189L88.2612 27.056C88.2323 27.056 88.2612 27.1003 88.2323 27.1165C87.3934 27.6051 86.5987 28.1644 85.8566 28.7882C85.8566 28.7882 84.4997 27.628 83.8254 27.1527L84.3702 26.4438V19.8659L83.0947 18.9515L82.6231 19.4389L82.3427 19.1891L83.7363 17.6303L84.7191 16.4702L87.5946 18.5205Z" fill="#0C0C0C"/>
<path d="M64.7977 18.5052C64.3546 18.279 63.8854 18.1072 63.4004 17.9936C63.5385 17.8285 64.2778 16.9504 64.4809 16.7167L64.9276 16.2897C64.9216 16.3406 64.9216 16.392 64.9276 16.4428C64.9259 16.5612 64.9506 16.6785 64.9997 16.7864C65.0489 16.8942 65.1214 16.99 65.2121 17.0669C65.3029 17.1439 65.4096 17.2 65.5247 17.2314C65.6399 17.2627 65.7605 17.2685 65.8782 17.2484C66.1319 17.1838 66.3554 17.0342 66.5108 16.8251C66.6661 16.6159 66.744 16.36 66.7311 16.1005C66.7329 15.982 66.7082 15.8647 66.6591 15.7568C66.6099 15.649 66.5374 15.5532 66.4466 15.4763C66.3559 15.3993 66.2492 15.3432 66.134 15.3119C66.0189 15.2805 65.8983 15.2747 65.7807 15.2948H65.7359L65.671 15.319L65.5897 15.3512C64.9439 15.6251 64.3712 16.3219 63.9163 16.906C63.5101 17.4015 63.1445 17.8284 63.0755 17.901C62.0722 17.6995 60.6384 17.5385 59.5986 17.4377C61.5117 15.2867 63.1486 13.5264 65.4679 10.9525L65.2445 10.7108C64.8383 11.17 64.7652 11.2224 64.2127 11.7984C63.118 11.1466 61.9228 10.6772 60.675 10.4087C59.2896 10.1228 57.8653 10.0725 56.4629 10.2597C55.1642 10.5069 53.9693 11.1324 53.0307 12.0562C52.3441 12.6978 51.8087 13.4818 51.4629 14.3523C51.1481 15.0892 51.0591 15.9017 51.2069 16.6885C51.3248 17.2889 51.6056 17.846 52.0193 18.2998C52.1777 18.5293 53.0429 19.484 56.6741 20.1728C56.268 20.6199 55.9836 20.9462 55.5327 21.4095C55.3252 21.6542 55.094 21.8781 54.8422 22.0781C54.851 22.0476 54.8578 22.0167 54.8626 21.9855C54.8905 21.8684 54.8916 21.7465 54.8658 21.629C54.8401 21.5114 54.788 21.401 54.7137 21.3059C54.6392 21.2109 54.5443 21.1336 54.4358 21.0797C54.3274 21.0259 54.2081 20.9968 54.0868 20.9945C53.8252 21.0132 53.5787 21.1229 53.3907 21.3041C53.2027 21.4854 53.0853 21.7267 53.0591 21.9855C53.0319 22.1023 53.0313 22.2236 53.0574 22.3408C53.0835 22.4578 53.1356 22.5676 53.2099 22.6622C53.2843 22.7568 53.379 22.8337 53.4871 22.8873C53.5952 22.941 53.7141 22.97 53.8349 22.9724C53.9119 22.9718 53.9884 22.961 54.0624 22.9401H54.1193C54.566 22.779 54.9316 22.5897 55.9593 21.4336C56.1745 21.196 56.6904 20.6481 57.06 20.2574C57.6367 20.3581 58.2785 20.4548 58.9974 20.5394C59.7164 20.624 60.285 20.7166 60.7968 20.8254C59.9845 21.8485 59.2899 22.7226 58.2866 23.9149C55.5879 23.6112 52.8594 24.1192 50.4556 25.3731C49.0299 26.1465 47.5717 27.2301 47.0721 28.9501C46.9156 29.4402 46.9155 29.9664 47.0718 30.4566C47.2281 30.9468 47.5332 31.3773 47.9454 31.6891C48.9567 32.3658 50.2565 31.8019 51.3735 31.2864C53.0267 30.4807 54.2898 29.2521 55.4759 27.9712C55.9349 27.4717 56.8528 26.36 56.8894 26.3036C57.5983 26.4766 58.287 26.7223 58.9446 27.0367C59.6492 27.3826 60.3093 27.8112 60.9106 28.3136C60.9471 28.3418 61.6661 29.0547 61.6498 29.0749L62.0357 28.7366C64.3021 26.8554 66.5036 24.6279 66.8692 21.7639C67.0236 20.1769 65.8253 18.9805 64.8383 18.5414L64.7977 18.5052ZM53.0591 16.463C52.4539 16.1004 51.9543 15.6573 51.9909 14.9686C52.0022 14.4615 52.1546 13.9674 52.4313 13.541C52.708 13.1145 53.0981 12.7721 53.5587 12.5516C55.6587 11.5769 57.7627 12.1046 59.4037 12.7893C60.307 13.1877 61.1581 13.6935 61.9381 14.2958C60.6872 15.75 60.3785 16.0964 59.164 17.4659C56.532 17.2847 53.6643 16.9504 53.0713 16.475L53.0591 16.463ZM55.9471 26.8675C54.8434 28.247 53.5026 29.4225 51.9868 30.3398C51.1324 30.9558 50.1024 31.2859 49.0461 31.2823C48.7365 31.286 48.4314 31.2096 48.1606 31.0608C47.8913 30.8498 47.7013 30.5552 47.621 30.2243C47.5407 29.8934 47.5748 29.5454 47.7179 29.2361C48.449 27.5483 50.8373 26.3801 53.4044 26.0458C54.429 25.9071 55.471 25.97 56.471 26.231L55.943 26.8675H55.9471ZM58.701 24.0479C59.5458 22.9481 60.3541 21.9855 61.1625 20.9503L61.6011 21.055C61.7882 21.103 61.9726 21.1607 62.1535 21.2281C62.8332 21.4627 63.4719 21.801 64.0463 22.2312C64.3494 22.4409 64.6013 22.7154 64.7833 23.0344C64.9652 23.3535 65.0725 23.7089 65.0975 24.0746C65.1224 24.4403 65.0643 24.807 64.9273 25.1474C64.7904 25.4879 64.5781 25.7935 64.3062 26.0418C64.3062 26.0418 64.221 26.1344 64.156 26.1949L64.0504 26.2633C62.4268 25.1917 60.6108 24.4395 58.701 24.0479Z" fill="#0C0C0C"/>
<path d="M36.3811 5.12392L33.2048 5.8248V5.7402C33.4008 5.69219 33.5848 5.60441 33.745 5.4824C33.7954 5.39155 33.8265 5.2914 33.8362 5.18816C33.846 5.08492 33.8343 4.98079 33.8019 4.88222C33.7653 4.62442 33.68 4.18535 33.5703 3.69795C33.4606 3.21056 33.416 2.98901 33.282 2.46133C33.1844 2.05852 33.1357 1.94573 32.9732 1.88531C32.7947 1.85241 32.6116 1.85241 32.433 1.88531V1.7967L34.8701 1.26902C35.2763 1.17638 35.4062 1.14416 35.4509 1.01929H35.5159L35.6743 1.96992H35.5972C35.5972 1.96992 35.5078 1.63961 35.3453 1.5671C35.1498 1.51456 34.9437 1.51456 34.7482 1.5671C34.6061 1.59127 34.4111 1.63155 34.2405 1.66781L33.8343 1.76045C33.9277 2.26798 34.0497 2.86011 34.1553 3.33945L35.1544 3.10181C35.2598 3.08583 35.3546 3.0294 35.4184 2.9447C35.4762 2.81869 35.496 2.67879 35.4753 2.54189H35.5484L35.8246 3.77449H35.7515C35.6849 3.60697 35.5823 3.45581 35.4509 3.33141L34.2324 3.60532C34.2324 3.60532 34.3745 4.27398 34.4923 4.69291C34.6101 5.11183 34.7198 5.27296 35.3047 5.14406C35.6858 5.08078 36.0331 4.88862 36.2877 4.60025C36.3706 4.458 36.4283 4.30269 36.4583 4.14106H36.5313L36.4298 5.12392" fill="#0C0C0C"/>
<path d="M30.1655 2.54526C30.0436 2.64999 30.0355 2.79099 30.137 3.18574C30.397 4.14845 30.6082 4.84934 30.9494 5.96915C30.99 6.11415 31.1037 6.44042 31.1037 6.44042L30.9656 6.50892L27.0866 4.18067C27.0866 4.18067 27.5253 5.64691 27.7243 6.27932C27.9234 6.91173 28.0005 6.97213 28.1549 6.98824C28.3329 7.00171 28.5119 6.99088 28.6869 6.95604L28.7154 7.04061L26.9567 7.54815L26.9323 7.46358C27.1 7.39914 27.2572 7.31095 27.3994 7.20174C27.5131 7.10104 27.505 6.88756 27.3994 6.45252C27.18 5.57037 26.7089 3.93496 26.7089 3.93496C26.5637 3.83885 26.4068 3.76167 26.2418 3.70536C26.0752 3.66308 25.9007 3.66308 25.7341 3.70536L25.7097 3.62076L27.4888 3.10518L27.5131 3.18975C27.5131 3.18975 27.2126 3.30658 27.1963 3.48382C28.4879 4.28944 30.5067 5.46967 30.5067 5.46967C30.5067 5.46967 30.133 4.26125 29.8364 3.38715C29.6618 2.87558 29.5724 2.77487 29.3734 2.77084C29.2125 2.75908 29.051 2.75908 28.8901 2.77084V2.69027L30.6041 2.19482L30.6285 2.27539C30.4846 2.3441 30.3484 2.42782 30.2223 2.52513" fill="#0C0C0C"/>
<path d="M43.7329 0.298691C43.5704 0.40745 43.4039 0.580664 43.1968 1.26141C42.7906 2.54637 42.2909 4.41542 42.2909 4.41542L42.1285 4.44361C42.1285 4.44361 42.031 4.23013 41.962 4.06498C41.4826 3.02572 40.6987 1.52726 40.6987 1.52726C40.6987 1.52726 40.2113 3.11031 39.7848 4.68529L39.6224 4.7135L39.464 4.34291C39.0334 3.37215 38.5988 2.45776 38.152 1.52325C38.0717 1.29589 37.9156 1.10256 37.7093 0.975408C37.5395 0.900162 37.355 0.863035 37.169 0.866669V0.782067L39.1552 0.568591V0.657198C39.0009 0.701507 38.6963 0.753869 38.7247 1.0318C38.7496 1.19523 38.7988 1.35407 38.8709 1.50309C39.07 1.95827 39.3584 2.58262 39.8173 3.54937C40.0895 2.63096 40.5079 1.13251 40.5079 1.13251C40.434 0.940056 40.2887 0.782959 40.1017 0.693461C39.9602 0.624652 39.8043 0.590137 39.6468 0.592759V0.504128L41.6776 0.290652V0.379258C41.5436 0.411483 41.0927 0.488011 41.1293 0.826372C41.1542 0.986456 41.2049 1.14152 41.2796 1.28558C41.6208 2.00258 41.9335 2.59068 42.3113 3.29963C42.3113 3.29963 42.6362 2.12745 42.8312 1.28558C42.8967 1.04818 42.9268 0.802547 42.9206 0.556495C42.8921 0.282585 42.5915 0.31078 42.3925 0.302723V0.214117L44.1959 0.020752V0.109383C44.0333 0.140302 43.8769 0.197446 43.7329 0.278556" fill="#0C0C0C"/>
<path d="M52.1836 0.431009C51.9823 0.530265 51.8134 0.683841 51.6962 0.874088C51.29 1.434 50.6644 2.43296 50.6644 2.43296C50.6354 2.62251 50.6164 2.81345 50.6076 3.00497C50.6076 3.19429 50.5873 3.38763 50.5832 3.52862C50.5832 3.78642 50.5832 3.97975 50.766 4.09656C50.9307 4.16675 51.1042 4.2142 51.2819 4.23756V4.32617L49.1129 4.18117V4.09656C49.2922 4.0925 49.4705 4.06955 49.645 4.02809C49.8115 3.9717 49.8684 3.81461 49.9049 3.49638C49.9415 3.17816 49.978 2.61019 49.978 2.61019C49.978 2.61019 49.4175 1.38163 49.0357 0.676717C48.9524 0.49928 48.8302 0.342426 48.6783 0.217509C48.5718 0.15171 48.4529 0.107893 48.329 0.0886309V0L50.1202 0.116806V0.205437C50.0024 0.205437 49.714 0.205444 49.714 0.439073C49.7195 0.580347 49.7584 0.71836 49.8277 0.841882C49.9293 1.0876 50.5102 2.21545 50.5102 2.21545C50.7825 1.81535 51.0334 1.40121 51.2616 0.974789C51.3341 0.850225 51.3836 0.713813 51.4078 0.571982C51.4078 0.290016 51.1235 0.26988 51.0016 0.24974V0.161134L52.5736 0.261836V0.354475C52.4511 0.354839 52.3298 0.378063 52.2161 0.422945" fill="#0C0C0C"/>
<path d="M55.3888 4.85731C55.1008 4.81156 54.825 4.70931 54.5773 4.55656C54.3297 4.4038 54.1153 4.20361 53.9466 3.96769C53.7779 3.73177 53.6584 3.46486 53.5949 3.18257C53.5315 2.90028 53.5255 2.60828 53.5772 2.32365C53.6362 2.03408 53.7533 1.75921 53.9216 1.51543C54.0898 1.27164 54.3058 1.06391 54.5567 0.904573C54.8075 0.74524 55.0881 0.63756 55.3818 0.587938C55.6755 0.538317 55.9762 0.547784 56.2661 0.615745C56.556 0.654885 56.8347 0.752182 57.0854 0.901723C57.3361 1.05126 57.5534 1.24991 57.724 1.48551C57.8947 1.72111 58.0152 1.98874 58.0781 2.27205C58.1409 2.55535 58.145 2.84841 58.0899 3.1333C58.0308 3.42454 57.9134 3.70103 57.7445 3.94642C57.5757 4.19181 57.3589 4.4011 57.107 4.56187C56.8552 4.72265 56.5732 4.83164 56.2781 4.88239C55.983 4.93315 55.6805 4.92461 55.3888 4.85731ZM56.128 0.829221C55.1897 0.651985 54.5764 1.50191 54.4017 2.44046C54.1743 3.61666 54.6739 4.51089 55.5188 4.67202C56.4611 4.84925 57.0703 4.08794 57.2734 3.06078C57.4766 2.03361 57.0907 1.04674 56.128 0.861449" fill="#0C0C0C"/>
<path d="M63.3379 6.21481C63.0138 6.167 62.7078 6.0364 62.45 5.83583C62.1922 5.63526 61.9915 5.37164 61.8675 5.07085C61.7244 4.71156 61.6302 4.33498 61.5873 3.95103C61.3963 3.95103 60.8927 3.91479 60.8927 3.91479C60.8927 3.91479 60.783 4.45052 60.7262 4.83318C60.6977 5.04667 60.6206 5.381 60.8805 5.5099C61.0145 5.57032 61.2583 5.65491 61.2583 5.65491V5.73951L59.2598 5.3367V5.25209C59.4273 5.2828 59.5998 5.27453 59.7635 5.22793C59.9625 5.13126 60.0072 4.90568 60.06 4.72442C60.1128 4.54315 60.2388 3.99936 60.3403 3.51599C60.4256 3.11318 60.523 2.62176 60.584 2.25923C60.6449 1.8967 60.653 1.72752 60.5393 1.60668C60.4123 1.50104 60.262 1.42653 60.1006 1.38917V1.30054C60.1006 1.30054 61.1445 1.50195 61.6685 1.61071C62.623 1.81211 63.2932 2.30354 63.151 3.02054C63.0848 3.23928 62.9537 3.43315 62.7747 3.57686C62.5958 3.72057 62.3773 3.80746 62.1478 3.82616C62.2459 4.29913 62.4201 4.75339 62.6636 5.17155C62.8216 5.43789 63.0219 5.67725 63.2566 5.88048C63.4655 6.03597 63.7008 6.1533 63.9512 6.22691V6.30748C63.8009 6.30748 63.5451 6.2551 63.3419 6.21481H63.3379ZM61.3435 1.74768L60.9374 3.57239L61.571 3.77782C61.7689 3.73245 61.9499 3.63287 62.0935 3.49044C62.2372 3.34801 62.3377 3.16846 62.3834 2.97221C62.5458 2.21492 61.7619 1.86045 61.3111 1.76378" fill="#0C0C0C"/>
<path d="M65.0491 6.68617L65.0775 6.60159C65.2422 6.63254 65.4095 6.64871 65.5772 6.64993C65.7112 6.64993 65.833 6.55728 65.9834 6.14642C66.1336 5.73555 66.2595 5.39316 66.422 4.90575C66.5844 4.41836 66.6901 4.12431 66.8281 3.72956C66.8931 3.52815 66.9663 3.32674 66.8281 3.16965C66.7107 3.05148 66.5732 2.9547 66.422 2.88367L66.4504 2.79907L68.2782 3.41535L68.2498 3.49996C68.1111 3.45466 67.9648 3.43687 67.8192 3.44759C67.6405 3.47981 67.5471 3.68929 67.4537 3.93903C67.3034 4.34184 67.1978 4.63589 67.0475 5.09913C66.8973 5.56236 66.7754 5.90474 66.6413 6.38006C66.5357 6.72244 66.5276 6.87551 66.6413 7.00844C66.7651 7.11 66.9017 7.19529 67.0475 7.2622L67.0191 7.34678L65.0491 6.68617ZM67.4861 7.49179L67.5146 7.40721C67.5146 7.40721 67.8029 7.4918 67.9207 7.37901C67.9095 7.24012 67.8752 7.10401 67.8192 6.9762C67.5024 6.10614 67.1369 5.30454 67.1369 5.30454C67.6243 5.01451 68.063 4.73255 68.5138 4.40224C68.7738 4.20889 68.8996 4.09208 68.9443 3.9672C68.989 3.84233 68.8103 3.68122 68.6356 3.60066L68.6641 3.51606L70.3985 4.09611L70.37 4.1807C70.2198 4.14848 69.7933 3.97528 68.9687 4.43851C68.66 4.61574 68.0142 5.01855 67.7989 5.1837C68.0752 5.94098 68.331 6.58145 68.5179 7.02857C68.6137 7.3213 68.7795 7.58665 69.0012 7.80194C69.1013 7.88545 69.2136 7.95341 69.3343 8.00339L69.3059 8.08393L67.4861 7.49179Z" fill="#0C0C0C"/>
</g>
<defs>
<clipPath id="clip0_430_424">
<rect width="96" height="32" fill="white" transform="translate(0.0518799)"/>
</clipPath>
</defs>
</svg>
