<svg width="130" height="32" viewBox="0 0 130 32" fill="none" xmlns="http://www.w3.org/2000/svg">
<g clip-path="url(#clip0_430_397)">
<path fill-rule="evenodd" clip-rule="evenodd" d="M49.7077 16.4328C49.7077 18.4136 48.7871 19.4464 47.3901 19.4464C46.1901 19.4464 45.4092 18.5533 45.4092 17.2136V9.59717H40.1703V18.3288C40.1703 21.8987 42.2908 24.1041 45.4716 24.1041C46.2684 24.1139 47.0583 23.9549 47.7892 23.6376C48.5202 23.3202 49.1757 22.8518 49.7127 22.263V23.685H54.9291V9.59717H49.7077V16.4328Z" fill="#0C0C0C"/>
<path fill-rule="evenodd" clip-rule="evenodd" d="M65.6965 9.17822C63.9652 9.17822 62.5706 9.73704 61.5652 10.7399V9.59734H56.3412V29.8272L61.5577 28.4326V22.545C62.5556 23.5429 63.9577 24.1067 65.689 24.1067C69.5659 24.1067 72.4972 21.0931 72.4972 16.6574C72.4972 12.2218 69.5634 9.17822 65.6965 9.17822ZM64.4491 19.7534C62.86 19.7534 61.5752 18.4137 61.5752 16.6574C61.5752 14.9011 62.86 13.5315 64.4491 13.5315C66.1805 13.5315 67.2956 14.8712 67.2956 16.6574C67.2956 18.4437 66.1705 19.7534 64.4392 19.7534H64.4491Z" fill="#0C0C0C"/>
<path fill-rule="evenodd" clip-rule="evenodd" d="M73.535 23.6876H78.754V2.20044L73.535 3.59749V23.6876Z" fill="#0C0C0C"/>
<path fill-rule="evenodd" clip-rule="evenodd" d="M90.6961 10.7524C89.6983 9.75448 88.2962 9.19067 86.5674 9.19067C82.688 9.19067 79.7592 12.2043 79.7592 16.6749C79.7592 21.1455 82.688 24.1242 86.5674 24.1242C88.2962 24.1242 89.6933 23.5654 90.6961 22.5625V23.7051H95.9151V9.59732H90.6961V10.7524ZM87.8222 19.7534C86.0934 19.7534 84.9757 18.4137 84.9757 16.6574C84.9757 14.9011 86.0934 13.5315 87.8222 13.5315C89.4139 13.5315 90.6961 14.8712 90.6961 16.6574C90.6961 18.4437 89.4139 19.7534 87.8222 19.7534Z" fill="#0C0C0C"/>
<path fill-rule="evenodd" clip-rule="evenodd" d="M106.77 9.17819C105.973 9.16806 105.183 9.32691 104.452 9.64425C103.721 9.9616 103.066 10.4302 102.529 11.0193V9.59731H97.3098V23.6876H102.529V16.852C102.529 14.8712 103.449 13.8384 104.844 13.8384C106.044 13.8384 106.825 14.7315 106.825 16.0712V23.6876H112.064V14.956C112.071 11.381 109.951 9.17819 106.77 9.17819Z" fill="#0C0C0C"/>
<path fill-rule="evenodd" clip-rule="evenodd" d="M123.949 3.59744V10.7523C122.951 9.75445 121.549 9.19064 119.817 9.19064C115.938 9.19064 113.009 12.2043 113.009 16.6749C113.009 21.1454 115.938 24.1241 119.817 24.1241C121.549 24.1241 122.943 23.5653 123.949 22.5624V23.705H129.188V2.20288L123.949 3.59744ZM121.085 19.7534C119.353 19.7534 118.238 18.4137 118.238 16.6574C118.238 14.9011 119.353 13.5315 121.085 13.5315C122.674 13.5315 123.959 14.8712 123.959 16.6574C123.959 18.4436 122.674 19.7534 121.085 19.7534Z" fill="#0C0C0C"/>
<path fill-rule="evenodd" clip-rule="evenodd" d="M16.4606 1.94081e-07C13.2953 -0.000492686 10.201 0.937797 7.56906 2.69618C4.93712 4.45456 2.88582 6.95403 1.67464 9.87842C0.463453 12.8028 0.146802 16.0207 0.764741 19.1251C1.38268 22.2295 2.90745 25.0808 5.14616 27.3185C7.38487 29.5562 10.2369 31.0796 13.3416 31.6961C16.4463 32.3126 19.664 31.9944 22.5878 30.7818C25.5117 29.5693 28.0102 27.5168 29.7673 24.8841C31.5245 22.2513 32.4613 19.1565 32.4593 15.9913C32.4567 11.7496 30.77 7.6826 27.77 4.68401C24.7701 1.68542 20.7022 0.000660678 16.4606 1.94081e-07ZM22.4729 17.6004C22.4729 21.3724 20.0979 23.7075 16.5354 23.7075C12.8806 23.7075 10.4383 21.3724 10.4383 17.6004V12.2167L14.4299 11.154V17.6004C14.4299 19.2469 15.2731 20.1675 16.5354 20.1675C17.7055 20.1675 18.4888 19.2469 18.4888 17.6004V10.0688L22.4804 9.00351L22.4729 17.6004Z" fill="#0C0C0C"/>
</g>
<defs>
<clipPath id="clip0_430_397">
<rect width="128.716" height="32" fill="white" transform="translate(0.459076)"/>
</clipPath>
</defs>
</svg>
