<svg width="13" height="11" viewBox="0 0 13 11" fill="none" xmlns="http://www.w3.org/2000/svg">
<path d="M3.57109 0.327313C4.08738 0.239345 4.61682 0.268363 5.1204 0.412229C5.62398 0.556094 6.08886 0.811139 6.48076 1.15856L6.50234 1.17781L6.52217 1.16031C6.89621 0.832069 7.33594 0.58736 7.81203 0.442511C8.28812 0.297662 8.78963 0.256003 9.28309 0.320313L9.42659 0.341313C10.0486 0.44871 10.63 0.72232 11.1092 1.13317C11.5884 1.54402 11.9476 2.07681 12.1487 2.67513C12.3498 3.27345 12.3854 3.91502 12.2516 4.5319C12.1179 5.14878 11.8198 5.71801 11.3889 6.17931L11.2839 6.28723L11.2559 6.31115L6.91009 10.6156C6.8098 10.7148 6.67694 10.7744 6.53611 10.7832C6.39528 10.792 6.25603 10.7494 6.14417 10.6634L6.08934 10.6156L1.71842 6.28606C1.25539 5.83553 0.926083 5.26562 0.766984 4.63947C0.607885 4.01331 0.6252 3.35534 0.817011 2.73841C1.00882 2.12149 1.36764 1.56969 1.85374 1.14414C2.33983 0.71858 2.93422 0.435869 3.57109 0.327313Z" fill="black"/>
</svg>
